{"title":"The Great Dictator-720p MP4 AAC x264 BRRip 1940-CC","uid":7424866,"size":2141720653,"categoryP":"video","categoryS":"hd___movies","magnet":"?xt=urn:btih:e66230eac8004ffff7d1aa914d62450e38de2006&amp;dn=The+Great+Dictator-720p+MP4+AAC+x264+BRRip+1940-CC&amp;tr=udp%3A%2F%2Ftracker.openbittorrent.com%3A80&amp;tr=udp%3A%2F%2Fopen.demonii.com%3A1337&amp;tr=udp%3A%2F%2Ftracker.coppersurfer.tk%3A6969&amp;tr=udp%3A%2F%2Fexodus.desync.com%3A6969","seeders":0,"leechers":1,"uploader":"Caveman44","files":-1,"time":1341773581,"description":" &lt;a href=&quot;http://www.imdb.com/title/tt0032553/&quot; rel=&quot;nofollow&quot; target=&quot;_NEW&quot;&gt;http://www.imdb.com/title/tt0032553/&lt;/a&gt;\n\nSource: The.Great.Dictator.1940.720p.BluRay.x264-THUGLiNE\n\nSubs: Arabic, Bulgarian, Dutch, English, Farsi-Persian, Greek, Hebrew, Portuguese, Servian, Spanish, Swedish and Vietnamese.\n\nSample and Screens included.\n\nGeneral\nComplete name                    : The Great Dictator-720p MP4 AAC x264 BRRip 1940-CC.mp4\nFormat                           : MPEG-4\nFormat profile                   : Base Media\nCodec ID                         : isom\nFile size                        : 1.97 GiB\nDuration                         : 2h 5mn\nOverall bit rate                 : 2 250 Kbps\nEncoded date                     : UTC 2012-07-05 15:36:22\n\nVideo\nID                               : 1\nFormat                           : AVC\nFormat/Info                      : Advanced Video Codec\nFormat profile                   : &lt;a class=&quot;__cf_email__&quot; href=&quot;/cdn-cgi/l/email-protection&quot; data-cfemail=&quot;074f6e606f474b342936&quot;&gt;[email&amp;#160;protected]&lt;/a&gt;&lt;script cf-hash='f9e31' type=&quot;text/javascript&quot;&gt;\n/* &lt;![CDATA[ */!function(){try{var t=&quot;currentScript&quot;in document?document.currentScript:function(){for(var t=document.getElementsByTagName(&quot;script&quot;),e=t.length;e--;)if(t[e].getAttribute(&quot;cf-hash&quot;))return t[e]}();if(t&amp;&amp;t.previousSibling){var e,r,n,i,c=t.previousSibling,a=c.getAttribute(&quot;data-cfemail&quot;);if(a){for(e=&quot;&quot;,r=parseInt(a.substr(0,2),16),n=2;a.length-n;n+=2)i=parseInt(a.substr(n,2),16)^r,e+=String.fromCharCode(i);e=document.createTextNode(e),c.parentNode.replaceChild(e,c)}}}catch(u){}}();/* ]]&gt; */&lt;/script&gt;\nFormat settings, CABAC           : Yes\nFormat settings, ReFrames        : 5 frames\nCodec ID                         : avc1\nCodec ID/Info                    : Advanced Video Coding\nDuration                         : 2h 5mn\nBit rate mode                    : Variable\nBit rate                         : 2 076 Kbps\nNominal bit rate                 : 2 087 Kbps\nMaximum bit rate                 : 22.0 Mbps\nWidth                            : 960 pixels\nHeight                           : 720 pixels\nDisplay aspect ratio             : 4:3\nFrame rate mode                  : Variable\nFrame rate                       : 23.976 fps\nMinimum frame rate               : 13.605 fps\nMaximum frame rate               : 24.390 fps\nResolution                       : 24 bits\nColorimetry                      : 4:2:0\nScan type                        : Progressive\nBits/(Pixel*Frame)               : 0.125\nStream size                      : 1.82 GiB (92%)\nWriting library                  : x264 core 112\n\n\nAudio\nID                               : 2\nFormat                           : AAC\nFormat/Info                      : Advanced Audio Codec\nFormat version                   : Version 4\nFormat profile                   : LC\nFormat settings, SBR             : No\nCodec ID                         : 40\nDuration                         : 2h 5mn\nBit rate mode                    : Variable\nBit rate                         : 169 Kbps\nMaximum bit rate                 : 210 Kbps\nChannel(s)                       : 2 channels\nChannel positions                : L R\nSampling rate                    : 48.0 KHz\nResolution                       : 16 bits\nStream size                      : 151 MiB (7%)\nLanguage                         : English\n\nEnjoy...\n\nRequested by varuneric. ( more coming up )","torrent":{"xt":"urn:btih:e66230eac8004ffff7d1aa914d62450e38de2006","amp;dn":"The+Great+Dictator-720p+MP4+AAC+x264+BRRip+1940-CC","amp;tr":["udp%3A%2F%2Ftracker.openbittorrent.com%3A80","udp%3A%2F%2Fopen.demonii.com%3A1337","udp%3A%2F%2Ftracker.coppersurfer.tk%3A6969","udp%3A%2F%2Fexodus.desync.com%3A6969"],"infoHash":"e66230eac8004ffff7d1aa914d62450e38de2006","infoHashBuffer":{"type":"Buffer","data":[230,98,48,234,200,0,79,255,247,209,170,145,77,98,69,14,56,222,32,6]},"announce":[],"urlList":[]}}